<?xml version="1.0" encoding="UTF-8"?>
<svg version="1.1" xmlns="http://www.w3.org/2000/svg" width="916" height="916">
<path d="M0 0 C302.28 0 604.56 0 916 0 C916 302.28 916 604.56 916 916 C613.72 916 311.44 916 0 916 C0 613.72 0 311.44 0 0 Z " fill="#FEFEFE" transform="translate(0,0)"/>
<path d="M0 0 C8.13324574 1.91370488 13.53368725 5.79033885 18.1875 12.75 C20.87083231 17.62415425 23.1165934 22.58938067 25.1875 27.75 C25.61417969 28.79542969 26.04085938 29.84085938 26.48046875 30.91796875 C30.54270135 42.72337396 30.02589344 55.39824364 30.1875 67.75 C30.73575439 67.95568604 31.28400879 68.16137207 31.84887695 68.37329102 C52.28826904 76.10856405 52.28826904 76.10856405 61.1875 82.75 C62.02152344 83.36488281 62.85554688 83.97976562 63.71484375 84.61328125 C88.04305462 103.31863907 103.28029558 130.62753217 112.05932617 159.63623047 C115.42223919 170.42348655 122.24325363 175.68609715 131.77734375 181.265625 C143.26791267 187.2922741 153.77971766 188.19646644 166.61767578 188.18579102 C168.6071947 188.18935817 170.59662242 188.21739219 172.5859375 188.24609375 C174.34429932 188.24887329 174.34429932 188.24887329 176.13818359 188.25170898 C179.82151073 188.85360416 180.98857311 189.77891325 183.1875 192.75 C184.82071066 201.6584218 180.33396186 210.01934637 176.1875 217.75 C174.45703125 220.23046875 174.45703125 220.23046875 173.1875 221.75 C174.48749547 224.41864488 175.88361941 226.97439423 177.4296875 229.5078125 C190.45013053 251.06280888 197.39589871 274.80917983 191.8984375 300.10546875 C190.48321391 305.36978946 188.88394331 310.57008329 187.1875 315.75 C188.26487427 315.93550415 188.26487427 315.93550415 189.36401367 316.12475586 C192.20482696 316.75383695 194.67672793 317.64312215 197.36328125 318.75390625 C198.348125 319.16068604 199.33296875 319.56746582 200.34765625 319.98657227 C201.38792969 320.42412842 202.42820312 320.86168457 203.5 321.3125 C204.57507813 321.76359131 205.65015625 322.21468262 206.7578125 322.67944336 C215.43094685 326.35708603 223.88312894 330.30583038 232.1875 334.75 C232.85716797 335.10416992 233.52683594 335.45833984 234.21679688 335.82324219 C251.93359666 345.24724883 276.5641789 360.30530122 286.1875 378.75 C286.625 382 286.625 382 286.1875 384.75 C282.95958445 386.9019437 281.90349191 386.95086443 278.1875 386.75 C280.29400792 391.80955639 282.62914249 396.68541481 285.125 401.5625 C294.13349431 419.44337126 294.13349431 419.44337126 293.1875 425.75 C290.43205169 428.50544831 288.52856623 428.11279855 284.6875 428.3125 C280.27816238 428.41407271 280.27816238 428.41407271 276.1875 429.75 C276.73937938 434.87459423 277.98284913 439.22487566 279.9375 444 C282.83077316 451.38669289 284.90611462 458.83936657 286.84521484 466.52294922 C291.19378477 483.57403139 296.63023755 500.0564819 302.80664062 516.52587891 C309.116414 533.41105648 313.98063819 549.80506768 313.75 568 C313.74121826 569.25288818 313.73243652 570.50577637 313.72338867 571.79663086 C313.52085821 581.42310069 312.50636133 590.81210847 311 600.3125 C310.80414307 601.56514648 310.60828613 602.81779297 310.40649414 604.10839844 C308.37986471 615.70733695 305.49953382 627.81289735 296.1875 635.75 C292.52313048 637.99095905 289.91241725 638.13991037 285.7265625 637.51953125 C273.71957224 633.88048959 262.88088883 620.42205858 255.078125 611.05078125 C252.70890384 608.25292195 250.29728803 606.07432896 247.25 604 C246.45722656 603.44828125 245.66445313 602.8965625 244.84765625 602.328125 C235.88010695 597.00816918 226.62643636 596.23206943 216.48828125 598.30078125 C208.13999712 601.29142293 200.59569696 606.96429452 193.1875 611.75 C184.41922292 617.39705492 175.88846605 622.81198408 166.1875 626.75 C165.20136719 627.22566406 165.20136719 627.22566406 164.1953125 627.7109375 C158.22772679 630.40997004 151.62759909 630.64861848 145.1875 629.75 C142.62964248 627.87679385 142.21272949 626.82568846 141.1875 623.75 C138.92370792 597.58703149 151.83452017 575.29539849 165.66455078 554.09521484 C173.07468773 542.68422165 179.83567994 531.27918807 185.1875 518.75 C185.57035156 517.94046875 185.95320312 517.1309375 186.34765625 516.296875 C187.46451222 512.90994434 187.52663679 509.87371719 187.5625 506.3125 C187.59085938 505.03503906 187.61921875 503.75757813 187.6484375 502.44140625 C186.98141896 497.09960525 184.63919125 494.09002269 180.75 490.5 C174.2066057 486.03134048 167.90006692 485.98039837 160.1875 486.75 C147.93551724 489.43182289 137.02362197 495.65026818 126.1875 501.75 C125.20007813 502.30429687 124.21265625 502.85859375 123.1953125 503.4296875 C121.05522554 504.59654118 121.05522554 504.59654118 120.1875 506.75 C119.93555041 508.22349057 119.72564723 509.70431451 119.5390625 511.1875 C119.42046875 512.08339844 119.301875 512.97929688 119.1796875 513.90234375 C118.93898672 515.76905514 118.70187789 517.63623399 118.46875 519.50390625 C116.45020875 534.60001793 110.69645304 548.47718033 100.1875 559.75 C99.30578125 560.32621094 98.4240625 560.90242187 97.515625 561.49609375 C94.75753172 564.16626123 94.62334729 565.82902954 94.5390625 569.59375 C94.54679687 570.3053125 94.55453125 571.016875 94.5625 571.75 C94.5625 579.06578947 94.5625 579.06578947 92.8515625 582.1875 C88.64153766 586.14057496 82.14976362 585.12398731 76.73046875 585.03515625 C65.56222259 584.55586339 54.47174033 580.92589024 44.1875 576.75 C43.60742188 578.21373047 43.60742188 578.21373047 43.015625 579.70703125 C42.49020219 580.99244064 41.96412604 582.2775831 41.4375 583.5625 C41.18484375 584.20509766 40.9321875 584.84769531 40.671875 585.50976562 C39.10870019 589.28092486 37.85527337 591.81922874 34.1875 593.75 C26.603766 595.70984137 19.98950719 592.32670797 13.50390625 588.73046875 C2.94814405 582.42685104 -5.94982918 573.58302178 -14.6875 565 C-15.23277344 564.46890625 -15.77804687 563.9378125 -16.33984375 563.390625 C-17.8125 561.75 -17.8125 561.75 -19.00390625 559.734375 C-20.46800558 557.40283124 -21.42629963 556.16143091 -23.8125 554.75 C-28.6157295 554.41476915 -33.15001586 554.87581467 -37.90917969 555.51806641 C-40.3325906 555.81337687 -42.74875056 555.85620835 -45.1875 555.9375 C-49.93806608 556.44254357 -53.10947858 558.48928415 -57.05859375 561.06640625 C-71.42885339 569.85162881 -87.58406121 573.14154578 -104.00219727 575.36032104 C-113.71346403 576.70689351 -123.36832098 578.34293985 -133.01437759 580.0921154 C-135.1374524 580.4770158 -137.26092092 580.85967843 -139.38449097 581.24183655 C-144.65908115 582.19145618 -149.93309142 583.14427759 -155.20697021 584.09783936 C-186.84853743 589.81862377 -186.84853743 589.81862377 -197.8671875 591.56640625 C-198.56812531 591.67790512 -199.26906311 591.78940399 -199.99124146 591.90428162 C-209.59440092 593.38552779 -218.99842568 593.96387252 -228.71166992 593.99023438 C-230.84659848 593.99987179 -232.98053319 594.03095148 -235.11523438 594.0625 C-253.26633044 594.20220431 -272.78367693 591.21427031 -286.8125 578.75 C-290.84726248 574.53266908 -292.15385231 570.61599741 -292.5 564.8125 C-292.20031911 558.38151015 -290.04980016 554.48256901 -285.8125 549.75 C-285.27882813 549.14671875 -284.74515625 548.5434375 -284.1953125 547.921875 C-278.78499152 542.58369163 -272.0155864 539.65086991 -265.2265625 536.44921875 C-261.83990863 534.98938566 -261.83990863 534.98938566 -259.8125 532.75 C-260.56587646 532.32871826 -260.56587646 532.32871826 -261.33447266 531.89892578 C-272.28669823 525.74500829 -282.81458908 519.3668117 -292.8125 511.75 C-293.52792969 511.22019531 -294.24335938 510.69039062 -294.98046875 510.14453125 C-300.44556555 505.83760066 -304.70724888 499.96050224 -307.8125 493.75 C-308.56969954 487.32462102 -308.43478177 482.00974554 -304.51953125 476.703125 C-297.81974803 469.03746914 -290.44236628 464.22964236 -281.56103516 459.47875977 C-274.7577005 455.81373755 -268.80452596 451.65627739 -262.8125 446.75 C-262.27786133 446.3154248 -261.74322266 445.88084961 -261.19238281 445.43310547 C-254.84797479 440.25643632 -248.76680346 434.94543538 -243.10546875 429.015625 C-241.16906053 427.10230853 -239.19683152 425.3409359 -237.1328125 423.5703125 C-232.33910676 419.41298857 -227.93937465 414.90379121 -223.5 410.375 C-217.66566149 404.47824711 -211.87235051 398.84870228 -205.32421875 393.75 C-200.60798119 389.99461333 -196.23313347 385.84571263 -191.8125 381.75 C-192.47608674 378.23544802 -193.90773645 375.61191913 -195.75 372.5625 C-196.27464844 371.68207031 -196.79929687 370.80164063 -197.33984375 369.89453125 C-198.63565988 367.63668679 -198.63565988 367.63668679 -200.8125 366.75 C-201.07933594 367.33394531 -201.34617187 367.91789062 -201.62109375 368.51953125 C-203.71583287 372.44115761 -206.81112698 375.49995831 -209.8125 378.75 C-210.45058594 379.45382812 -211.08867187 380.15765625 -211.74609375 380.8828125 C-229.9761983 400.11229896 -262.02241943 419.6964333 -288.9453125 421.05078125 C-290.26273437 421.05464844 -291.58015625 421.05851562 -292.9375 421.0625 C-293.60136719 421.07861328 -294.26523437 421.09472656 -294.94921875 421.11132812 C-300.01394266 421.11628382 -303.38809866 420.01520422 -307.8125 417.75 C-310.24775782 414.89121909 -310.09666837 411.73361891 -310.015625 408.06640625 C-309.79315446 405.52938649 -309.32671925 403.11896336 -308.8125 400.625 C-306.68709338 389.48971747 -307.0277135 379.15778377 -311.8125 368.75 C-312.4725 368.09 -313.1325 367.43 -313.8125 366.75 C-314.8025 368.4 -315.7925 370.05 -316.8125 371.75 C-321.26245291 371.66100094 -323.32642752 371.18323851 -326.6875 368.1875 C-341.76928361 348.42794393 -349.06521829 324.51108935 -346.8125 299.75 C-344.83965626 285.83612314 -339.98359701 273.29126167 -333.8125 260.75 C-334.4012793 260.57186768 -334.99005859 260.39373535 -335.59667969 260.21020508 C-345.87285705 256.96869105 -352.98246279 251.55596152 -359.1875 242.8125 C-360.19731033 239.4801259 -359.71837747 237.07155074 -358.8125 233.75 C-354.98662226 230.86444118 -350.7338768 229.71424445 -346.1875 228.4375 C-328.71901864 223.19655795 -317.5580591 213.68744303 -308.8125 197.75 C-306.4289907 193.10853803 -304.25044681 188.36901474 -302.05722046 183.6355896 C-296.08189476 170.80701721 -289.92178927 158.68500426 -280.8125 147.75 C-280.36100586 147.19666992 -279.90951172 146.64333984 -279.44433594 146.07324219 C-264.33889045 127.79684768 -243.24029343 114.8656045 -219.8125 110.75 C-205.82672085 109.84892481 -192.48094641 110.85426986 -178.8125 113.75 C-176.48250365 114.12092503 -174.15169892 114.43991314 -171.8125 114.75 C-171.420625 114.1415625 -171.02875 113.533125 -170.625 112.90625 C-160.34440369 97.83985886 -146.6551111 86.12997648 -131.8125 75.75 C-131.00167969 75.18007324 -130.19085938 74.61014648 -129.35546875 74.02294922 C-125.90001854 71.5958756 -122.44074767 69.17438843 -118.97607422 66.76049805 C-105.01713899 57.03314452 -92.46328108 46.60136206 -80.54541016 34.4465332 C-79.68955322 33.57774536 -79.68955322 33.57774536 -78.81640625 32.69140625 C-78.30924072 32.17263916 -77.8020752 31.65387207 -77.27954102 31.11938477 C-74.90198419 28.90009433 -73.16586635 27.80377314 -69.9375 27.3125 C-65.63930643 27.9142471 -64.44234675 29.33830692 -61.8125 32.75 C-58.87308585 39.1070105 -58.42814542 44.30456666 -58.625 51.25 C-58.63853516 52.1678125 -58.65207031 53.085625 -58.66601562 54.03125 C-58.70101903 56.27146803 -58.75011131 58.51040594 -58.8125 60.75 C-49.29667715 56.31085683 -40.59811711 51.94079068 -32.8125 44.75 C-31.96042969 43.96625 -31.10835938 43.1825 -30.23046875 42.375 C-20.97243937 33.49173343 -15.24565045 23.87567836 -9.65625 12.4921875 C-4.04339339 1.07823824 -4.04339339 1.07823824 0 0 Z " fill="#020101" transform="translate(462.8125,139.25)"/>
<path d="M0 0 C0.66 0 1.32 0 2 0 C2.6509259 1.24735567 3.29551669 2.49801832 3.9375 3.75 C4.29714844 4.44609375 4.65679687 5.1421875 5.02734375 5.859375 C9.91081156 16.60692665 8.40013853 34.04672751 4.421875 44.78515625 C1.41203644 51.59036815 -1.70735583 58.32680125 -5 65 C-4.3709375 64.73445313 -3.741875 64.46890625 -3.09375 64.1953125 C11.08551123 58.34423181 24.03857309 56.52543669 38.671875 62.48046875 C40.31929688 63.23263672 40.31929688 63.23263672 42 64 C42.99515625 64.44988281 43.9903125 64.89976562 45.015625 65.36328125 C54.11131748 70.06920771 62.80197551 77.7999845 69 86 C69.68481445 88.21411133 69.68481445 88.21411133 70 90 C66.29600008 89.43564274 63.84710033 88.40733964 60.6875 86.4375 C53.11059034 82.55277651 44.01430321 82.49634618 35.92578125 84.921875 C29.14491965 88.04370665 25.02208248 92.07317356 22.25 99.0625 C21.21646447 102.00086556 20.57280581 104.9397319 20 108 C20.99515625 107.6390625 21.9903125 107.278125 23.015625 106.90625 C35.4682212 102.66478732 49.90297579 99.9965985 62.6875 104.5625 C67.62312827 107.03031414 71.86506317 110.37612277 76 114 C76.60585938 114.50015625 77.21171875 115.0003125 77.8359375 115.515625 C91.79298264 128.02012698 95.35770532 147.36218635 98 165 C98.10586426 165.68046387 98.21172852 166.36092773 98.32080078 167.06201172 C100.19183471 179.37643945 100.20744589 191.56477165 100 204 C96.37 204 92.74 204 89 204 C89.0314209 202.69518677 89.0314209 202.69518677 89.06347656 201.36401367 C90.42200728 166.75130246 90.42200728 166.75130246 75.72265625 136.43359375 C68.3127171 129.54148728 61.82115905 128.34570457 51.95703125 128.6328125 C44.3625524 129.33753216 40.08005771 132.3886628 35.25 138.125 C25.72428886 151.46540564 22.84244133 167.21615257 22.75 183.3125 C22.729375 184.19873047 22.70875 185.08496094 22.6875 185.99804688 C22.65429541 191.6884841 23.53040232 196.30074296 25.34082031 201.68432617 C26.26025402 204.91426275 26.21749422 207.66508856 26 211 C24.97261719 211.49628906 23.94523437 211.99257813 22.88671875 212.50390625 C6.30155497 220.59677571 -7.5996525 228.55694843 -17 245 C-12.6938471 244.07792673 -9.26017636 241.95920355 -5.5 239.75 C1.06170021 235.97878708 7.71415353 232.1933171 15 230 C15.66 230.33 16.32 230.66 17 231 C16.67773438 231.83917969 16.35546875 232.67835938 16.0234375 233.54296875 C13.61909196 241.66451761 13.60073865 251.38490579 17.68359375 258.953125 C18.11800781 259.62859375 18.55242187 260.3040625 19 261 C19.48597656 261.75796875 19.97195313 262.5159375 20.47265625 263.296875 C30.19411572 276.99425051 49.00114683 285.32111932 65 289 C68.00724351 289.46397471 70.96444656 289.75118414 74 290 C74.66 290.33 75.32 290.66 76 291 C76.8309176 301.59419943 73.31432904 311.39582587 66.91015625 319.78515625 C61.22473998 326.37744873 55.04784629 330.69117163 47 334 C45.83984375 334.48146484 45.83984375 334.48146484 44.65625 334.97265625 C31.66913302 339.39074193 15.17333005 337.91445355 2 335 C0.82566406 334.74347656 -0.34867187 334.48695313 -1.55859375 334.22265625 C-25.48455363 328.4216691 -46.84716513 315.5891011 -64.82421875 298.98828125 C-66.57001374 297.39293179 -68.33288102 295.90064268 -70.1875 294.4375 C-73.20524016 291.82212519 -75.74210851 289.03271799 -78.31640625 285.98828125 C-79.37978351 284.73245984 -80.46832698 283.4971526 -81.58984375 282.29296875 C-83 280.75 -83 280.75 -85 278 C-84.67 276.68 -84.34 275.36 -84 274 C-73.11 273.505 -73.11 273.505 -62 273 C-66.65828727 268.21579809 -66.65828727 268.21579809 -72.125 265.75 C-72.97320312 265.43546875 -73.82140625 265.1209375 -74.6953125 264.796875 C-85.94225045 260.90810323 -98.50328076 262.42265062 -109.16796875 267.51171875 C-120.14754622 273.58117462 -126.41732061 280.83464121 -132 292 C-131.46632813 291.81824219 -130.93265625 291.63648438 -130.3828125 291.44921875 C-126.16506842 290.02627741 -121.93679302 288.63843096 -117.6875 287.3125 C-116.88699219 287.06113281 -116.08648437 286.80976563 -115.26171875 286.55078125 C-113 286 -113 286 -109 286 C-109 291.94 -109 297.88 -109 304 C-111.77083984 305.16015625 -111.77083984 305.16015625 -114.59765625 306.34375 C-135.99889359 315.34478489 -135.99889359 315.34478489 -156.23828125 326.67578125 C-156.95918945 327.13388184 -157.68009766 327.59198242 -158.42285156 328.06396484 C-159.80627117 328.9520432 -161.18253416 329.85141469 -162.54980469 330.76416016 C-166.37109831 333.25283435 -169.34363239 334.60539258 -174 335 C-178.43422014 329.61914859 -182.25466117 324.42878339 -185 318 C-185.4125 317.071875 -185.825 316.14375 -186.25 315.1875 C-187.80647174 308.5724951 -187.49586369 302.27914468 -185.6875 295.75 C-179.45931905 272.54844155 -180.54311711 248.25728395 -180.49468994 224.45227051 C-180.48303965 219.31485049 -180.4591868 214.17775034 -180.41999817 209.0404644 C-180.40671932 206.68104633 -180.41053906 204.32210039 -180.41540527 201.96266174 C-180.36425685 187.88802692 -178.04926309 174.81040318 -173.3125 161.5 C-172.99216797 160.57058594 -172.67183594 159.64117187 -172.34179688 158.68359375 C-171.57110904 156.45204987 -170.79071284 154.22450852 -170 152 C-185.39726059 162.66346731 -192.89876065 180.14868974 -197 198 C-199.35407696 211.34528174 -199.36626055 224.73820099 -199.5 238.25 C-199.90535617 278.92905105 -199.90535617 278.92905105 -204.625 293.3125 C-204.88442383 294.13242432 -205.14384766 294.95234863 -205.41113281 295.79711914 C-214.60729219 323.54499017 -236.00005183 345.11746476 -261.8359375 358.10546875 C-280.62407371 367 -280.62407371 367 -289 367 C-289.01417969 365.741875 -289.02835938 364.48375 -289.04296875 363.1875 C-289.34517276 350.24986682 -291.24427097 339.45997125 -296.53125 327.55078125 C-298.1092121 323.73597394 -299.16623304 320.00381083 -300.125 316 C-300.29386719 315.32710938 -300.46273437 314.65421875 -300.63671875 313.9609375 C-302.68436718 305.60911164 -303.18225658 297.57823356 -303.1875 289 C-303.19974609 287.94554687 -303.21199219 286.89109375 -303.22460938 285.8046875 C-303.23526935 280.13358024 -302.92263554 275.34994236 -301 270 C-312.25757343 277.71947893 -319.11029758 287.25922609 -324 300 C-324.66 300 -325.32 300 -326 300 C-332.98961549 281.40876863 -327.7872021 259.3231984 -319.90942383 241.859375 C-315.94555991 233.36573861 -311.52357141 225.5889068 -306 218 C-305.46890625 217.2471875 -304.9378125 216.494375 -304.390625 215.71875 C-303.27317584 214.13674333 -302.13920791 212.56641088 -301 211 C-301.82371094 211.16113281 -302.64742187 211.32226562 -303.49609375 211.48828125 C-307.36877365 212.05385658 -311.15858222 212.18385489 -315.0625 212.1875 C-315.75666016 212.19974609 -316.45082031 212.21199219 -317.16601562 212.22460938 C-321.23157292 212.23619216 -324.34385767 211.80312672 -328 210 C-326.55965773 207.11931546 -324.61875608 206.84373644 -321.6875 205.5625 C-304.83493303 197.26646822 -297.15095098 182.85124569 -289.56567383 166.44921875 C-283.28806397 153.0099791 -276.13793594 139.92681506 -266 129 C-265.56107422 128.5148291 -265.12214844 128.0296582 -264.66992188 127.52978516 C-250.59805458 112.08302401 -232.8266495 101.52919555 -211.67578125 99.71484375 C-192.7672832 99.19024127 -176.55107504 107.12732581 -161 117 C-160.98582031 116.34515625 -160.97164062 115.6903125 -160.95703125 115.015625 C-160.01211963 96.93461338 -148.78711783 83.42854047 -135.92919922 71.66601562 C-129.68171847 66.27082344 -122.80396207 61.65541976 -116 57 C-115.28312012 56.50725586 -114.56624023 56.01451172 -113.82763672 55.50683594 C-111.10089383 53.63271221 -108.37298127 51.76036774 -105.63989258 49.89550781 C-98.30881873 44.87936401 -91.1046033 39.6698425 -84.3125 33.9375 C-82 32 -82 32 -81 32 C-81.5059599 40.7699716 -85.08885898 48.23780966 -89 56 C-64.64556389 53.69094668 -39.90810615 44.70273197 -21 29 C-20.39542969 28.54109375 -19.79085938 28.0821875 -19.16796875 27.609375 C-10.10196282 20.48754641 -4.74146023 10.29112391 0 0 Z " fill="#E93F26" transform="translate(465,171)"/>
<path d="M0 0 C6.46522162 0.84378554 10.20700676 4.85757925 15 9 C15.50047852 9.42667969 16.00095703 9.85335937 16.51660156 10.29296875 C26.68363269 19.00939267 36.61586777 29.33545946 39 43 C41.07536299 73.05188505 32.46913382 103.99012604 14 128 C18.81927321 124.16648722 23.02342348 119.95706197 27.1875 115.4375 C27.69829102 114.88360596 28.20908203 114.32971191 28.73535156 113.7590332 C31.01322929 111.26355938 33.17223023 108.77667179 35.23828125 106.09765625 C36.11033203 105.05931641 36.11033203 105.05931641 37 104 C37.66 104 38.32 104 39 104 C34.89371896 120.19047953 21.76680047 132.38378274 8 141 C7.41105957 141.36899414 6.82211914 141.73798828 6.21533203 142.11816406 C4.25415611 143.33961995 2.28563699 144.54796844 0.3125 145.75 C-0.3052832 146.12721191 -0.92306641 146.50442383 -1.55957031 146.89306641 C-5.59158249 149.30128319 -9.64725643 151.23431712 -14 153 C-7.13742745 152.36457662 -0.21831334 151.10915667 6 148 C7.99960012 147.960008 10.00047242 147.95653201 12 148 C0.99041639 160.11054198 -16.31424189 167.86916322 -32 172 C-35.90625 172.12890625 -35.90625 172.12890625 -39 172 C-39 171.34 -39 170.68 -39 170 C-38.0925 169.29875 -37.185 168.5975 -36.25 167.875 C-32.49782369 164.91415945 -30.82919888 161.33627734 -29 157 C-29.77859375 157.4846875 -30.5571875 157.969375 -31.359375 158.46875 C-61.13860689 176.30884284 -96.19011979 182.4089452 -130 188 C-131.10601562 188.19142578 -132.21203125 188.38285156 -133.3515625 188.58007812 C-141.56876382 189.99560348 -149.67463295 190.71395665 -158 191 C-158.9089502 191.03399902 -159.81790039 191.06799805 -160.75439453 191.10302734 C-177.680023 191.6573663 -193.81987586 191.13709357 -209 183 C-209 182.01 -209 181.02 -209 180 C-206.32731709 178.66365855 -204.2332347 178.85579672 -201.2421875 178.82421875 C-187.93974039 178.58804287 -175.65793961 178.31174066 -163 174 C-162.37335449 173.79777832 -161.74670898 173.59555664 -161.10107422 173.38720703 C-154.48057443 171.23566901 -148.21677252 168.73770308 -142.12109375 165.35546875 C-141.29005127 164.89543457 -140.45900879 164.43540039 -139.6027832 163.96142578 C-137.99467368 163.05350702 -136.39955924 162.12202362 -134.82104492 161.16357422 C-128.9559976 157.81593575 -124.56810937 157.49354021 -118 159 C-116.45065412 159.49752469 -114.9076813 160.01579029 -113.375 160.5625 C-102.88895347 163.87128391 -91.80191938 162.98453017 -81.79296875 158.6328125 C-76.63694854 155.61852376 -72.89699196 151.69097588 -71 146 C-70.03098911 138.62815769 -70.99723808 133.43736384 -75.18359375 127.26953125 C-80.31616829 120.85657252 -87.01832096 116.4590765 -93.78344727 111.93139648 C-95.20442057 110.97687995 -96.60446663 109.99133926 -98 109 C-98 108.67 -98 108.34 -98 108 C-82.77205207 107.15530643 -67.079476 110.04062769 -54.80859375 119.73046875 C-51.2547733 123.09138872 -48.89236796 126.43605376 -47 131 C-37.05969246 129.87605921 -27.39578388 122.47094314 -21.1953125 114.75390625 C-9.53469225 98.71429771 -4.92302688 81.41413708 -7.40234375 61.8203125 C-10.07525517 48.92744565 -17.16349415 36.61467173 -26 27 C-26.64839844 26.28328125 -27.29679688 25.5665625 -27.96484375 24.828125 C-35.70494415 16.67419745 -45.31706418 11.53778732 -55 6 C-50.10724818 4.39353734 -46.64435955 6.18481742 -42 7.9375 C-40.72394897 8.4173938 -40.72394897 8.4173938 -39.42211914 8.90698242 C-23.09787787 15.29270981 -9.43433644 26.85977586 -2 43 C0.0215153 48.22814089 1.52597029 53.59733316 3 59 C3.33 59.99 3.66 60.98 4 62 C5.66979328 86.94025687 0.57132882 109.45314667 -15.484375 129.125 C-17.15487124 131.13299754 -17.15487124 131.13299754 -19 134 C2.5207001 124.44117787 14.54266379 108.64992751 23 87 C27.04235604 75.72259907 29.22612369 65.44911156 29.375 53.4375 C29.41238281 52.32052734 29.44976562 51.20355469 29.48828125 50.05273438 C29.63924318 35.58554908 23.40517251 25.73896159 13.66015625 15.5546875 C10.94397372 12.81590777 8.18502192 10.12749658 5.390625 7.46875 C2.99260316 5.15536423 1.26493291 3.10483533 0 0 Z " fill="#FAF8F4" transform="translate(401,524)"/>
<path d="M0 0 C15.2244887 11.45416078 23.25366426 28.34613909 25.9375 46.9375 C27.70222816 66.41640384 25.26703041 84.2869142 17.07421875 101.97265625 C15.43828153 106.23958528 15.65059303 108.59418897 16.9375 112.9375 C17.57404342 114.2854743 18.23355388 115.62346724 18.9375 116.9375 C18.9375 118.2575 18.9375 119.5775 18.9375 120.9375 C13.68356658 120.37722139 9.54549835 117.74649835 5 115.25 C-18.78817585 102.5260394 -44.43017114 93.49077505 -71.6875 100.4375 C-79.47474558 103.13760023 -86.80874014 107.05626745 -94.0625 110.9375 C-94.3925 110.2775 -94.7225 109.6175 -95.0625 108.9375 C-87.14051944 95.51673294 -75.1613005 86.97168016 -60.0625 82.9375 C-57.73037973 82.86227031 -55.3939689 82.84424124 -53.0625 82.9375 C-53.32804687 81.98230469 -53.59359375 81.02710938 -53.8671875 80.04296875 C-60.12929028 57.27330013 -62.61193717 34.02083545 -50.68359375 12.484375 C-45.12074203 3.74466579 -38.44920407 -1.07297895 -29.125 -5.4375 C-18.61841527 -7.58170097 -8.95518732 -5.85956701 0 0 Z " fill="#040201" transform="translate(425.0625,308.0625)"/>
<path d="M0 0 C-7.76894625 5.62878149 -15.8229185 10.51542898 -24.140625 15.28125 C-28.15732287 17.61316627 -32.01982236 19.86089701 -35.546875 22.8984375 C-38 25 -38 25 -40 25 C-40.99 27.475 -40.99 27.475 -42 30 C-35.66616294 27.34509213 -29.625973 24.25826573 -23.57055664 21.02368164 C-14.2627681 16.0634409 -4.97298872 11.22849508 4.9375 7.5625 C5.70497559 7.27463623 6.47245117 6.98677246 7.26318359 6.69018555 C10.95568087 5.39768507 13.27352982 4.82686147 17 6 C10.84781011 11.11459354 4.29645097 14.52247969 -2.9375 17.875 C-4.03400879 18.39167236 -5.13051758 18.90834473 -6.26025391 19.44067383 C-8.46614561 20.47907274 -10.67380348 21.51372888 -12.88330078 22.54443359 C-15.69709201 23.85853537 -18.50440118 25.18510006 -21.30859375 26.51953125 C-32.48730398 31.82910133 -32.48730398 31.82910133 -36 33 C-36 33.66 -36 34.32 -36 35 C-34.1863478 34.56730125 -32.37414268 34.12853661 -30.5625 33.6875 C-29.55316406 33.44386719 -28.54382813 33.20023438 -27.50390625 32.94921875 C-20.86170434 31.14982626 -14.40886534 28.79704632 -7.91796875 26.51953125 C-5.99560529 25.8465287 -4.07316198 25.17375533 -2.15063477 24.5012207 C-0.83222816 24.03868805 0.48547295 23.57413993 1.80249023 23.10766602 C3.7270377 22.42669424 5.65420863 21.75366577 7.58203125 21.08203125 C8.71874268 20.68218018 9.8554541 20.2823291 11.02661133 19.87036133 C14 19 14 19 18 19 C17.73388672 20.88818359 17.73388672 20.88818359 17 23 C15.38720703 24.02978516 15.38720703 24.02978516 13.2578125 24.7890625 C12.45142334 25.08611084 11.64503418 25.38315918 10.81420898 25.68920898 C9.48305054 26.15242554 9.48305054 26.15242554 8.125 26.625 C7.20984619 26.95765869 6.29469238 27.29031738 5.35180664 27.63305664 C3.33871999 28.36461605 1.32336826 29.08996347 -0.69384766 29.81005859 C-4.22708772 31.0817328 -7.74510424 32.39010593 -11.26171875 33.70703125 C-21.18839652 37.42046619 -21.18839652 37.42046619 -25.44140625 38.99609375 C-26.41795166 39.35888428 -27.39449707 39.7216748 -28.40063477 40.09545898 C-30.59239042 40.85815784 -32.73907286 41.4872916 -35 42 C-35 42.66 -35 43.32 -35 44 C-23.40100939 42.29478852 -12.41216295 39.18736229 -1.23120117 35.69335938 C-0.1094751 35.34724609 1.01225098 35.00113281 2.16796875 34.64453125 C3.17110107 34.32846924 4.1742334 34.01240723 5.20776367 33.68676758 C7.92721648 33.01790155 10.21357833 32.86588733 13 33 C13 34.32 13 35.64 13 37 C0.99046095 42.36934418 -10.94723289 45.55614365 -23.86621094 48.04541016 C-25.03571289 48.27405762 -26.20521484 48.50270508 -27.41015625 48.73828125 C-28.46340088 48.93462158 -29.51664551 49.13096191 -30.60180664 49.33325195 C-31.39321045 49.55327881 -32.18461426 49.77330566 -33 50 C-33.495 50.99 -33.495 50.99 -34 52 C-24.93207043 51.55249179 -16.06899362 50.79769924 -7.0859375 49.41015625 C-3.33028551 48.91098731 0.21985476 48.84879419 4 49 C-1.45319446 55.46104558 -12.34853277 55.24239209 -20.25 56 C-20.99386963 56.05873291 -21.73773926 56.11746582 -22.50415039 56.17797852 C-27.79745195 56.65224235 -32.21184884 57.61656476 -37 60 C-38.13440778 62.57080135 -38.13440778 62.57080135 -38 65 C-22.55735507 69.42724291 -2.86734677 71.1901061 12 64 C24.8001186 55.62592518 30.27424427 42.01849741 33.53930664 27.62207031 C33.9892776 25.06102734 34.11440762 22.73318106 34.09765625 20.13671875 C34.09443359 19.25048828 34.09121094 18.36425781 34.08789062 17.45117188 C34.07951172 16.53916016 34.07113281 15.62714844 34.0625 14.6875 C34.05798828 13.75615234 34.05347656 12.82480469 34.04882812 11.86523438 C34.03709234 9.57675627 34.02067363 7.28841192 34 5 C34.66 5 35.32 5 36 5 C40.93172161 12.85993132 41.04370186 20.18206734 39.421875 29.22265625 C38.04718089 35.00660858 36.12150818 40.45555425 34 46 C55.95998156 41.94316339 55.95998156 41.94316339 77.6875 36.8125 C103.28994774 30.18257102 127.92614709 26.60975772 151.78125 40.44140625 C154.87422506 42.61411233 156.85871503 44.89882867 159 48 C158.41992188 47.86722656 157.83984375 47.73445312 157.2421875 47.59765625 C156.46101562 47.42105469 155.67984375 47.24445312 154.875 47.0625 C154.10929688 46.88847656 153.34359375 46.71445312 152.5546875 46.53515625 C118.81406497 39.46716651 90.96821282 52.53166015 61.32836914 67.01660156 C49.03690304 73.00949976 36.56834638 78.61138889 24 84 C23.17935059 84.37906494 22.35870117 84.75812988 21.51318359 85.14868164 C18.59394376 86.1375479 16.4163678 86.13831172 13.34375 85.984375 C12.24820801 85.94699219 11.15266602 85.90960937 10.02392578 85.87109375 C8.86103027 85.83113281 7.69813477 85.79117188 6.5 85.75 C-5.64967773 85.50101105 -15.63867806 87.52202646 -27.05371094 91.4375 C-29.42175345 92.12189161 -31.55008821 92.23804811 -34 92 C-33.67 92.99 -33.34 93.98 -33 95 C-24.33448059 98.48557205 -13.95798241 98.85212549 -4.75561523 99.82226562 C1.77484774 100.55267797 7.77791773 101.88111484 14 104 C14 104.66 14 105.32 14 106 C6.24506486 106.09928082 -1.31068715 106.06059488 -9 105 C-9 105.66 -9 106.32 -9 107 C-8.23171875 107.22816406 -7.4634375 107.45632813 -6.671875 107.69140625 C-1.708494 109.46027076 2.99175126 111.68205104 7.75 113.9375 C8.70777344 114.38029297 9.66554688 114.82308594 10.65234375 115.27929688 C11.56628906 115.71177734 12.48023438 116.14425781 13.421875 116.58984375 C14.25299805 116.98034912 15.08412109 117.37085449 15.94042969 117.77319336 C18 119 18 119 20 122 C3.67962876 120.95252276 -11.37363283 112.01897218 -25.42529297 104.33251953 C-31.47336603 101.09594123 -37.17955515 99.06186567 -44 98 C-40.38277257 102.72172435 -36.68906955 105.96922442 -31.75 109.25 C-30.70380493 109.95443237 -30.70380493 109.95443237 -29.63647461 110.6730957 C-10.37951203 123.4902927 9.65784984 133.75320235 32 140 C32 140.66 32 141.32 32 142 C24.38527123 142.31349798 17.33259578 141.44602962 9.875 139.9375 C8.77986084 139.71634521 7.68472168 139.49519043 6.55639648 139.26733398 C-2.62268544 137.29590141 -10.71678234 134.37306616 -19 130 C-19.86753906 129.55140625 -20.73507812 129.1028125 -21.62890625 128.640625 C-27.94590607 125.10227255 -33.64678094 120.62452882 -39.38085938 116.22583008 C-47.25686957 110.02756237 -47.25686957 110.02756237 -57 109 C-60.68498767 109.58184016 -64.34378999 110.25950177 -68 111 C-66.5171614 106.7790097 -64.30485871 103.30017301 -61.8125 99.625 C-50.49797329 82.42792574 -44.80501826 64.76961383 -44.875 44.125 C-44.87113281 42.99191406 -44.86726563 41.85882812 -44.86328125 40.69140625 C-44.87059918 34.37603211 -45.16262846 28.26034913 -46 22 C-37.18923141 15.89018396 -28.33906046 9.93449716 -18.875 4.875 C-18.20218994 4.50963135 -17.52937988 4.1442627 -16.83618164 3.76782227 C-11.65081909 1.06680453 -5.79791327 -1.93263776 0 0 Z " fill="#F9F7F3" transform="translate(505,562)"/>
<path d="M0 0 C8.7800408 2.02616326 14.94426926 8.15096462 19.7109375 15.49609375 C23.01141683 21.90702482 24.53654056 27.46146916 24.4375 34.6875 C24.42992676 35.47133057 24.42235352 36.25516113 24.41455078 37.06274414 C24.02918107 50.83338211 18.36986617 64.05948306 8.9765625 74.15625 C-2.40995358 84.77766421 -16.45621125 89.90829165 -31.93359375 90.03125 C-37.65539734 89.69218016 -42.59768082 88.97111646 -48 87 C-47.35291334 82.77815413 -45.89699396 79.3120838 -44.125 75.4375 C-40.4721261 67.16599985 -37.88460394 59.39938171 -38.1875 50.3125 C-38.00390625 47.58203125 -38.00390625 47.58203125 -37 45 C-33.77775255 42.33814341 -30.39512737 40.3661235 -26.78125 38.29296875 C-12.61464155 30.04934503 -4.70891523 15.18005568 0 0 Z " fill="#E73F26" transform="translate(596,414)"/>
<path d="M0 0 C0.69963867 0.37253906 1.39927734 0.74507812 2.12011719 1.12890625 C12.11012457 6.47503265 21.75928474 12.28275264 31.3581543 18.29882812 C47.66223712 28.75072483 47.66223712 28.75072483 66 34 C63.65648564 22.51677964 54.25647211 16.29038218 45 10 C34.32361091 3.12865996 23.27068827 -3.15898637 12 -9 C15.6264407 -10.30713135 17.72870625 -9.67839521 21.296875 -8.375 C22.33054199 -8.00157471 23.36420898 -7.62814941 24.42919922 -7.2434082 C25.52506348 -6.8330835 26.62092773 -6.42275879 27.75 -6 C28.87293457 -5.58645264 29.99586914 -5.17290527 31.15283203 -4.74682617 C75.35355515 11.7071103 75.35355515 11.7071103 85 31 C85.16796875 33.0234375 85.16796875 33.0234375 85.1875 35.375 C85.20167969 36.14585937 85.21585938 36.91671875 85.23046875 37.7109375 C84.96401375 40.35742273 84.50591738 41.80217463 83 44 C77.60766123 48.07195444 72.48447344 47.64302425 66 47 C47.48776605 43.89358148 29.99756105 31.20485707 14.41796875 21.3828125 C8.46921451 17.64296663 2.43548788 14.05527343 -3.625 10.5 C-5.08184204 9.63689209 -5.08184204 9.63689209 -6.56811523 8.75634766 C-15.39074707 3.60218082 -24.13209658 -0.87601022 -34.125 -3.1875 C-35.14303711 -3.42774902 -35.14303711 -3.42774902 -36.18164062 -3.67285156 C-38.11837792 -4.12697669 -40.05910177 -4.56400112 -42 -5 C-43.49660156 -5.34224609 -43.49660156 -5.34224609 -45.0234375 -5.69140625 C-47.01284317 -6.14012078 -49.00588719 -6.57269011 -51 -7 C-37.88520298 -22.1324581 -13.81352119 -7.41370843 0 0 Z " fill="#F9F7F3" transform="translate(229,629)"/>
<path d="M0 0 C3.87420681 0.60202119 7.09996658 1.36610106 10.6875 2.9375 C18.78053191 6.02858858 27.43582047 6.32551539 36 7 C34.18172087 11.14985236 31.90392135 12.68951593 28 15 C27.01 15.33 26.02 15.66 25 16 C25.46386823 20.27145324 27.77940762 21.75379564 31 24.375 C43.18924923 34.85568093 51.62629536 51.17530242 54 67 C54.30157217 72.0016848 54.1846218 76.99469786 54 82 C51.11734561 79.17109002 48.40478243 76.33317187 45.875 73.1875 C39.28332739 65.6783569 31.74950889 61.1630672 22.5625 57.5625 C15.61941484 54.80775043 15.61941484 54.80775043 13.265625 51.73828125 C12.3125 49.375 12.3125 49.375 11.63671875 47.0703125 C10.29428439 42.7053419 6.49355333 40.33639454 2.87255859 37.8684082 C0.10952043 35.553991 0.01100605 35.06108553 -0.68115234 31.21948242 C-0.68021082 29.76446531 -0.6467926 28.309213 -0.5859375 26.85546875 C-0.57744781 26.08568192 -0.56895813 25.31589508 -0.56021118 24.52278137 C-0.52675703 22.0762329 -0.45150592 19.63304309 -0.375 17.1875 C-0.34488948 15.52413632 -0.31751555 13.86072071 -0.29296875 12.19726562 C-0.22699369 8.13022629 -0.12353843 4.06568149 0 0 Z " fill="#E83F26" transform="translate(581,342)"/>
<path d="M0 0 C10.91247177 5.52265962 15.65703454 16.55327841 19.4375 27.5625 C24.91410383 45.42943447 24.90602557 67.62544887 16.4375 84.5625 C11.92947399 83.30444623 8.9462188 81.65842835 5.4375 78.5625 C5.59863281 77.75425781 5.75976562 76.94601562 5.92578125 76.11328125 C6.5242932 71.96024795 6.62849789 67.93960105 6.625 63.75 C6.62564453 62.95480957 6.62628906 62.15961914 6.62695312 61.34033203 C6.57720307 55.82146819 6.01253315 50.8782369 4.4375 45.5625 C-3.9775 46.0575 -3.9775 46.0575 -12.5625 46.5625 C-9.95756458 40.05016145 -6.85764862 35.80000501 -0.5625 32.5625 C-2.23337558 27.42740069 -4.56910885 25.52914771 -9.0546875 22.73828125 C-12.98836299 20.89398791 -16.3336172 20.61919533 -20.5625 21.5625 C-23.85777096 23.20369086 -23.85777096 23.20369086 -26.5625 25.5625 C-27.985625 26.67625 -27.985625 26.67625 -29.4375 27.8125 C-30.13875 28.39 -30.84 28.9675 -31.5625 29.5625 C-32.41326699 20.7145233 -29.22738184 12.48735229 -23.6875 5.5625 C-16.80404464 -1.60119781 -9.44711052 -3.52843887 0 0 Z " fill="#FAF8F4" transform="translate(414.5625,320.4375)"/>
<path d="M0 0 C1.1763501 0.00858032 1.1763501 0.00858032 2.37646484 0.01733398 C12.35617276 0.32120658 20.46425007 3.81163052 27.69140625 10.73828125 C30.60716848 14.03404257 32.11075884 16.93353692 32.5 21.3125 C32.25 23.5 32.25 23.5 31.25 24.5 C29.14778307 24.59968672 27.04207396 24.62968203 24.9375 24.625 C23.78636719 24.62757813 22.63523437 24.63015625 21.44921875 24.6328125 C18.25 24.5 18.25 24.5 16.31225586 24.0065918 C7.49129942 21.83972964 -4.56058346 22.21200497 -12.69140625 26.2421875 C-23.2011563 32.66370461 -30.58339936 40.65899936 -36.98828125 51.15625 C-37.56964844 51.9296875 -38.15101563 52.703125 -38.75 53.5 C-39.74 53.5 -40.73 53.5 -41.75 53.5 C-44.73290654 44.55128037 -42.48875939 33.88898624 -38.6875 25.5 C-32.7193554 14.38389442 -22.82500691 5.35057494 -10.90258789 1.09545898 C-7.26970167 0.09051292 -3.75280067 -0.03209258 0 0 Z " fill="#040100" transform="translate(395.75,257.5)"/>
<path d="M0 0 C8.63129492 4.31564746 11.80769851 11.00665434 14.9296875 19.71484375 C18.83465826 31.70053869 20.04333918 45.86998245 16 58 C12.52674819 59.1577506 9.63932552 59.06866652 6 59 C5.93941406 57.85660156 5.87882813 56.71320313 5.81640625 55.53515625 C5.73201572 54.04425695 5.64736698 52.55337225 5.5625 51.0625 C5.52318359 50.30775391 5.48386719 49.55300781 5.44335938 48.77539062 C5.55961976 45.08055813 5.55961976 45.08055813 4 42 C2.14712498 41.92773498 0.29166122 41.9161878 -1.5625 41.9375 C-2.57441406 41.94652344 -3.58632813 41.95554687 -4.62890625 41.96484375 C-5.41136719 41.97644531 -6.19382812 41.98804688 -7 42 C-6.61177951 39.45742918 -6.27568599 38.25849694 -4.37109375 36.47265625 C-3.73300781 36.00730469 -3.09492187 35.54195313 -2.4375 35.0625 C0.40036672 32.76288887 0.40036672 32.76288887 1.8125 29.4375 C0.31283884 24.93851652 -3.49349116 22.79091714 -7.5 20.6875 C-10.58005278 19.84048548 -12.81435801 19.60992139 -16 20 C-19.32808239 21.88413915 -19.32808239 21.88413915 -22 24 C-22.65957029 16.87664085 -20.94633327 11.96562588 -17 6 C-11.88870535 0.52629081 -7.30582375 -0.87620521 0 0 Z " fill="#F7F5F1" transform="translate(525,316)"/>
<path d="M0 0 C1 1 1 1 1.3125 3.6875 C0.64718654 10.73982263 -4.54479192 14.85442499 -9.6328125 19.30078125 C-37.90021545 42.48431041 -37.90021545 42.48431041 -47.69140625 41.81640625 C-50 41 -50 41 -52 38 C-51.38496242 30.81317203 -45.9378474 26.59770921 -40.7265625 22.16796875 C-32.24821796 15.1610067 -23.33672588 8.81136614 -14 3 C-13.38753418 2.61239502 -12.77506836 2.22479004 -12.14404297 1.82543945 C-7.61490269 -0.92847502 -5.18185755 -1.34728296 0 0 Z " fill="#040404" transform="translate(649,223)"/>
<path d="M0 0 C2.3125 0.875 2.3125 0.875 4.3125 2.875 C5.69618523 9.67368418 3.89583108 14.94299662 0.41796875 20.7421875 C-13.40256053 41.30631455 -13.40256053 41.30631455 -20.6875 46.875 C-24.625 47.3125 -24.625 47.3125 -27.6875 46.875 C-29.52967479 40.98004067 -27.61103657 35.38605498 -24.875 30.0859375 C-24.15824751 28.80029172 -23.42857352 27.52178191 -22.6875 26.25 C-22.29594727 25.56776367 -21.90439453 24.88552734 -21.50097656 24.18261719 C-18.678892 19.35718722 -15.65567596 14.69505366 -12.4375 10.125 C-12.03789063 9.55313965 -11.63828125 8.9812793 -11.2265625 8.39208984 C-4.9719839 -0.23125507 -4.9719839 -0.23125507 0 0 Z " fill="#030303" transform="translate(604.6875,190.125)"/>
<path d="M0 0 C0.87422607 0.17362061 1.74845215 0.34724121 2.64916992 0.52612305 C8.85525239 1.85525239 8.85525239 1.85525239 11.125 4.125 C10.31458252 4.13958252 9.50416504 4.15416504 8.66918945 4.16918945 C5.5954284 4.231089 2.52225835 4.30538202 -0.55102539 4.38745117 C-2.50841834 4.43615436 -4.46613612 4.4712012 -6.42382812 4.50585938 C-26.65584023 5.07214979 -39.90555929 10.57272099 -53.8125 25.1875 C-55.875 27.125 -55.875 27.125 -58.875 27.125 C-60.33046042 22.5766862 -60.88004643 18.28714786 -58.81640625 13.84765625 C-54.01788591 6.03218004 -48.58003246 2.67360401 -39.8125 0.375 C-26.29915565 -2.74485937 -13.51906658 -2.69309453 0 0 Z " fill="#F8F6F2" transform="translate(555.875,396.875)"/>
<path d="M0 0 C0.66 0.66 1.32 1.32 2 2 C1.91952687 5.70176409 1.59153841 7.4293136 -1.10546875 10.03125 C-6.47515163 13.68350394 -12.82857939 15.15962905 -19 17 C-19.82113281 17.25136719 -20.64226563 17.50273437 -21.48828125 17.76171875 C-28.07700847 19.51126779 -35.25232168 19.80659908 -42 19 C-43.90234375 17.62890625 -43.90234375 17.62890625 -45 16 C-45.1875 13.625 -45.1875 13.625 -44 11 C-38.82541084 6.44207172 -32.53809754 4.68203963 -26 3 C-25.071875 2.72027344 -24.14375 2.44054687 -23.1875 2.15234375 C-15.52025978 -0.03975285 -7.96395351 -0.84466174 0 0 Z " fill="#050505" transform="translate(661,272)"/>
<path d="M0 0 C4.97763709 -0.17777275 8.93324293 0.12717017 13.76953125 1.48828125 C18.1088205 2.48380996 22.5673819 2.69036859 27 3 C25.5961656 13.45542336 23.03439388 23.88799684 16 32 C13.03423647 31.68223962 12.08520663 31.094617 10.0546875 28.83984375 C4.0225327 20.50262599 0 10.33674371 0 0 Z " fill="#FBF9F5" transform="translate(456,521)"/>
<path d="M0 0 C0.33 0 0.66 0 1 0 C1.53686774 11.40545677 1.79299792 20.79781162 -4 31 C-4.31114746 31.56074219 -4.62229492 32.12148438 -4.94287109 32.69921875 C-9.76857665 41.33444538 -15.29179299 49.47711547 -20.94921875 57.58203125 C-25.18554268 63.67201141 -29.24821446 69.87991116 -33.31713867 76.08251953 C-33.88279541 76.9382959 -34.44845215 77.79407227 -35.03125 78.67578125 C-35.53205078 79.43802002 -36.03285156 80.20025879 -36.54882812 80.9855957 C-37.9019871 82.86394608 -39.31281122 84.42155091 -41 86 C-39.13995228 78.92320213 -36.59465432 72.68128101 -33.125 66.25 C-32.41186646 64.90687744 -32.41186646 64.90687744 -31.68432617 63.53662109 C-27.55327085 55.8414525 -23.12358293 48.33349179 -18.6472168 40.83569336 C-10.81405329 27.70268986 -3.96319364 14.86197614 0 0 Z " fill="#F4F2EE" transform="translate(675,646)"/>
<path d="M0 0 C3.12287875 1.56143938 3.67476146 4.64058559 4.875 7.75 C5.13966064 8.43175293 5.40432129 9.11350586 5.67700195 9.81591797 C6.46458083 11.87257336 7.23533057 13.93473026 8 16 C8.38800781 17.03898438 8.77601563 18.07796875 9.17578125 19.1484375 C16.731603 41.37830688 20.01038928 74.57091003 12 97 C11.67 97 11.34 97 11 97 C10.43885023 89.59869551 9.95382909 82.23248004 9.859375 74.80859375 C9.54857027 51.37517908 6.1671798 29.00018238 0.69921875 6.17578125 C0 3 0 3 0 0 Z " fill="#F3F1EE" transform="translate(740,649)"/>
<path d="M0 0 C5.28452301 2.6673304 8.22933492 7.1618884 10.34375 12.56640625 C11.88077422 18.26620439 11.75372046 23.17850888 9.5 28.625 C8.7575 29.800625 8.7575 29.800625 8 31 C6.35 30.67 4.7 30.34 3 30 C1.84225492 26.52676476 2 23.64187701 2 20 C1.67 19.34 1.34 18.68 1 18 C-0.89533342 17.53476937 -0.89533342 17.53476937 -3.0625 17.375 C-4.361875 17.25125 -5.66125 17.1275 -7 17 C-5.35 15.02 -3.7 13.04 -2 11 C-5.64823039 8.66513255 -8.74410043 8.69600717 -13 9 C-15.35369807 9.88064927 -15.35369807 9.88064927 -17 11 C-16.8123405 6.96532084 -16.20790966 5.24522677 -13.5625 2.125 C-9.38863851 -0.95522952 -4.95753681 -1.08421566 0 0 Z " fill="#F7F5F1" transform="translate(301,552)"/>
<path d="M0 0 C2 1 2 1 3.2890625 4.7421875 C8.97916652 25.59546933 7.89834222 46.75411638 5 68 C3.515 68.495 3.515 68.495 2 69 C0.37917347 60.08556894 -0.27601063 51.53200442 -0.1953125 42.48046875 C-0.1924826 41.25588455 -0.18965271 40.03130035 -0.18673706 38.76960754 C-0.17565968 34.90880001 -0.15057897 31.04823585 -0.125 27.1875 C-0.1149541 24.54883151 -0.10583109 21.91015933 -0.09765625 19.27148438 C-0.07576127 12.84757506 -0.04241024 6.42380492 0 0 Z " fill="#EEECE8" transform="translate(727,660)"/>
<path d="M0 0 C-4.91795482 21.68370987 -4.91795482 21.68370987 -11 26 C-11.99 26 -12.98 26 -14 26 C-18.20553532 18.42210145 -21.01326911 11.64240157 -22 3 C-20.96359375 2.86722656 -19.9271875 2.73445312 -18.859375 2.59765625 C-17.48956735 2.41939361 -16.11977656 2.24100138 -14.75 2.0625 C-14.06808594 1.97548828 -13.38617187 1.88847656 -12.68359375 1.79882812 C-8.42248614 1.24033344 -4.27935228 0 0 0 Z " fill="#F9F7F3" transform="translate(589,514)"/>
<path d="M0 0 C0.33 0 0.66 0 1 0 C2.13083279 20.14557668 -5.60103675 40.00883683 -16 57 C-16.391875 57.65613281 -16.78375 58.31226563 -17.1875 58.98828125 C-18.25 60.6875 -18.25 60.6875 -20 63 C-20.66 63 -21.32 63 -22 63 C-21.2586275 48.66679825 -14.0739243 35.26328887 -8.37304688 22.32421875 C-5.1773912 14.98845885 -2.38175576 7.64012088 0 0 Z " fill="#F2F0EC" transform="translate(688,658)"/>
<path d="M0 0 C1.91792166 5.39023736 -0.79882769 10.03426009 -3 15 C-8.15765163 24.75118512 -8.15765163 24.75118512 -12 28 C-12.66 28 -13.32 28 -14 28 C-14.31453125 27.34773437 -14.6290625 26.69546875 -14.953125 26.0234375 C-17.84224506 20.09546957 -17.84224506 20.09546957 -21.3125 14.5 C-23 12 -23 12 -23 10 C-19.91953406 8.51480732 -16.83515998 7.03791395 -13.75 5.5625 C-12.87730469 5.14162109 -12.00460937 4.72074219 -11.10546875 4.28710938 C-10.26113281 3.88427734 -9.41679688 3.48144531 -8.546875 3.06640625 C-7.77182617 2.69459229 -6.99677734 2.32277832 -6.19824219 1.93969727 C-4.13880573 1.05933621 -2.1849954 0.47225498 0 0 Z " fill="#E73F26" transform="translate(559,655)"/>
<path d="M0 0 C19.07386726 2.42068958 39.68099527 16.74735571 54 29 C54 29.33 54 29.66 54 30 C44.27548012 29.67091303 36.3341699 28.76990722 29.4375 21.4375 C28.79554688 20.74914062 28.15359375 20.06078125 27.4921875 19.3515625 C19.58955523 11.89484678 9.60660433 5.97484867 0 1 C0 0.67 0 0.34 0 0 Z " fill="#F3F1ED" transform="translate(662,482)"/>
<path d="M0 0 C4.15333252 3.77782574 4.83101637 8.07358657 5.3125 13.5625 C4.84202001 18.73777986 3.31031168 21.7879617 -0.5 25.3125 C-4.17337501 27.79202813 -6.86110775 28.11868691 -11.1875 28.0625 C-12.53908203 28.04896484 -12.53908203 28.04896484 -13.91796875 28.03515625 C-14.60503906 28.02355469 -15.29210937 28.01195312 -16 28 C-14.700625 26.5459375 -14.700625 26.5459375 -13.375 25.0625 C-6.73984709 17.23802722 -2.84781846 9.90035713 0 0 Z " fill="#F7F5F1" transform="translate(672,539)"/>
<path d="M0 0 C3.68095769 0.70486424 4.80750351 1.4858384 6.9375 4.5625 C7.80396135 8.02834539 8.29931739 10.44689639 7.1875 13.875 C5.17625842 16.59017613 3.36157496 17.49796685 0.0625 18 C-3.0625 17.5625 -3.0625 17.5625 -5.9375 15.5 C-8.0625 12.5625 -8.0625 12.5625 -8.6875 9.0625 C-7.73242364 3.7140724 -5.41870341 0.99527205 0 0 Z " fill="#0B0301" transform="translate(469.0625,446.4375)"/>
<path d="M0 0 C0.66 0 1.32 0 2 0 C2.08150744 2.06183633 2.1394194 4.12461349 2.1875 6.1875 C2.23970703 7.91033203 2.23970703 7.91033203 2.29296875 9.66796875 C1.96899939 13.35258031 1.28022694 15.11512861 -1 18 C-4.46583501 20.60718219 -8.04235344 20.20291938 -12.25 20.125 C-13.51328125 20.10695313 -14.7765625 20.08890625 -16.078125 20.0703125 C-17.04234375 20.04710937 -18.0065625 20.02390625 -19 20 C-17.16505987 15.75615743 -15.17160266 14.96310713 -11 13 C-6.47375319 10.05793958 -4.09916898 6.35484107 -1.33203125 1.828125 C-0.89246094 1.22484375 -0.45289063 0.6215625 0 0 Z " fill="#F5F3EF" transform="translate(698,566)"/>
<path d="M0 0 C0 0.66 0 1.32 0 2 C-8.3068219 6.56083001 -16.46191264 10.47411888 -25.625 13 C-26.36991699 13.20713623 -27.11483398 13.41427246 -27.88232422 13.62768555 C-32.01262743 14.699769 -35.69751161 15.2171603 -40 15 C-37.60959605 12.27255106 -35.23435878 11.02184597 -31.921875 9.58984375 C-30.92542969 9.15736328 -29.92898437 8.72488281 -28.90234375 8.27929688 C-27.86207031 7.83650391 -26.82179687 7.39371094 -25.75 6.9375 C-24.72519531 6.49083984 -23.70039063 6.04417969 -22.64453125 5.58398438 C-14.95865879 2.27520144 -8.50441224 -0.34711887 0 0 Z " fill="#F4F2EE" transform="translate(256,676)"/>
<path d="M0 0 C2.375 1.5625 2.375 1.5625 4 4 C4.56288002 7.94016013 4.60396028 10.05782196 2.4375 13.4375 C-0.90506283 15.58016848 -3.10495209 15.49573337 -7 15 C-9.1642907 13.40183163 -9.89960563 12.49925851 -10.43359375 9.84375 C-10.44406064 3.56361543 -10.44406064 3.56361543 -8.375 0.9375 C-5.29946814 -0.27652573 -3.28060601 -0.47842171 0 0 Z " fill="#0B0301" transform="translate(448,466)"/>
<path d="M0 0 C2 1 2 1 3 3 C3.51048493 5.78446324 3.60562889 8.2256429 3 11 C0.9375 13.0625 0.9375 13.0625 -2 14 C-5.6875 13.875 -5.6875 13.875 -9 13 C-11.46324069 9.30513897 -11.38991688 7.36706908 -11 3 C-8.82711325 -1.20996808 -4.16043122 -0.60672955 0 0 Z " fill="#040100" transform="translate(491,475)"/>
<path d="M0 0 C2.4375 1.125 2.4375 1.125 4 3 C4.5625 5.875 4.5625 5.875 4 9 C1.9375 11.9375 1.9375 11.9375 -1 14 C-4.6875 14 -4.6875 14 -8 13 C-10.72286806 8.91569792 -10.38524534 6.85409123 -10 2 C-6.28986601 -0.47342266 -4.38939738 -0.38503486 0 0 Z " fill="#050101" transform="translate(584,471)"/>
<path d="M0 0 C2.375 1.5625 2.375 1.5625 4 4 C4.42519574 7.46230815 4.63902633 9.8347167 2.9375 12.9375 C-0.20334326 14.65989792 -2.49818786 14.49148241 -6 14 C-8.69500656 11.58140437 -9.80636871 9.99236035 -10.5 6.4375 C-9.31541251 0.66263599 -5.51230837 -0.91871806 0 0 Z " fill="#040100" transform="translate(601,446)"/>
<path d="M0 0 C0.33 0 0.66 0 1 0 C1.7301355 12.56103474 1.337093 22.82287956 -5 34 C-7.203125 36.41015625 -7.203125 36.41015625 -9 38 C-8.38736151 31.30862626 -7.212454 24.96212491 -5.625 18.4375 C-5.31175781 17.09655273 -5.31175781 17.09655273 -4.9921875 15.72851562 C-3.68988256 10.30092156 -2.06895742 5.18449272 0 0 Z " fill="#F7F5F1" transform="translate(706,667)"/>
<path d="M0 0 C9.21536046 2.90484188 16.6352629 12.72205032 21 21 C21 21.66 21 22.32 21 23 C15.86815926 21.52003095 12.97627592 18.35782938 9.375 14.625 C8.80265625 14.0475 8.2303125 13.47 7.640625 12.875 C0 5.09222384 0 5.09222384 0 0 Z " fill="#F3F1ED" transform="translate(461,690)"/>
<path d="M0 0 C9.47729177 2.13239065 15.73528986 10.33326585 21 18 C21 18.33 21 18.66 21 19 C17.72083936 19.36824799 16.31798892 19.21316848 13.53515625 17.34765625 C8.15566796 12.37609124 3.54503722 7.45600274 0 1 C0 0.67 0 0.34 0 0 Z " fill="#F2F0EC" transform="translate(709,527)"/>
<path d="M0 0 C3 1 3 1 4 3 C0.7 3.33 -2.6 3.66 -6 4 C-2 1 -2 1 0 0 Z " fill="#444342" transform="translate(391,674)"/>
</svg>
